<?xml version="1.0" encoding="iso-8859-1"?>
<!-- Generator: Adobe Illustrator 18.1.1, SVG Export Plug-In . SVG Version: 6.00 Build 0)  -->
<svg version="1.1" id="Capa_1" xmlns="http://www.w3.org/2000/svg" xmlns:xlink="http://www.w3.org/1999/xlink" x="0px" y="0px"
	 viewBox="0 0 456.552 456.552" style="enable-background:new 0 0 456.552 456.552;" xml:space="preserve">
<g>
	<path d="M75.253,356.732c-6.242,0-12.522-0.822-18.715-2.479c-18.544-4.969-34.042-16.862-43.641-33.486l-3.28-5.686
		c-19.817-34.322-8.015-78.362,26.304-98.176l147.856-85.366c34.326-19.806,78.362-8.008,98.172,26.307l3.284,5.686
		c19.817,34.322,8.015,78.366-26.304,98.179l-13.082,7.55c-6.427,3.721-14.631,1.514-18.341-4.913
		c-3.71-6.424-1.511-14.635,4.913-18.341l13.082-7.553c10.414-6.015,17.862-15.722,20.974-27.335
		c3.109-11.613,1.514-23.744-4.501-34.158l-3.28-5.686c-12.414-21.488-39.991-28.888-61.49-16.477L49.348,240.162
		c-21.495,12.407-28.884,39.994-16.474,61.49l3.28,5.686c6.015,10.414,15.719,17.862,27.335,20.974
		c11.606,3.119,23.74,1.521,34.154-4.497l33.025-19.069c6.434-3.7,14.635-1.497,18.345,4.917c3.707,6.424,1.507,14.635-4.917,18.345
		l-33.025,19.065C99.997,353.465,87.705,356.732,75.253,356.732z"/>
	<path d="M236.918,334.628c-24.859,0-49.065-12.89-62.36-35.92l-3.284-5.686c-19.817-34.322-8.015-78.366,26.304-98.179l13.082-7.55
		c6.434-3.714,14.638-1.504,18.341,4.913c3.71,6.424,1.511,14.635-4.913,18.341l-13.082,7.553
		c-10.414,6.015-17.862,15.722-20.974,27.335c-3.109,11.613-1.514,23.744,4.501,34.158l3.28,5.686
		c12.411,21.488,39.998,28.884,61.49,16.477l147.856-85.366c21.495-12.411,28.888-39.994,16.474-61.49l-3.28-5.686
		c-6.015-10.414-15.719-17.862-27.335-20.974c-11.596-3.105-23.737-1.511-34.154,4.497l-33.025,19.069
		c-6.424,3.71-14.635,1.507-18.345-4.917c-3.707-6.424-1.507-14.635,4.917-18.345l33.025-19.065
		c16.624-9.603,35.983-12.145,54.534-7.179c18.544,4.969,34.042,16.862,43.641,33.486l3.28,5.686
		c9.599,16.624,12.152,35.994,7.183,54.538c-4.969,18.541-16.862,34.042-33.486,43.638L272.73,325.015
		C261.442,331.529,249.102,334.628,236.918,334.628z"/>
</g>
<g>
</g>
<g>
</g>
<g>
</g>
<g>
</g>
<g>
</g>
<g>
</g>
<g>
</g>
<g>
</g>
<g>
</g>
<g>
</g>
<g>
</g>
<g>
</g>
<g>
</g>
<g>
</g>
<g>
</g>
</svg>
