<?xml version="1.0" encoding="utf-8"?>
<!-- Generator: Adobe Illustrator 16.0.0, SVG Export Plug-In . SVG Version: 6.00 Build 0)  -->
<!DOCTYPE svg PUBLIC "-//W3C//DTD SVG 1.1//EN" "http://www.w3.org/Graphics/SVG/1.1/DTD/svg11.dtd">
<svg version="1.1" id="Capa_1" xmlns="http://www.w3.org/2000/svg" xmlns:xlink="http://www.w3.org/1999/xlink" x="0px" y="0px"
	 width="512px" height="398.081px" viewBox="0 56.724 512 398.081" enable-background="new 0 56.724 512 398.081"
	 xml:space="preserve">
<g>
	<g>
		<path d="M143.086,400.621c-71.955,0-140.951-62.14-140.951-140.037s65.798-140.036,143.983-140.036h68.924v41.117h-68.924
			c-56.454,0-102.866,42.753-102.866,98.918c0,55.231,48.437,98.92,99.833,98.92V400.621z"/>
		<g>
			<polygon points="194.483,210.123 327.313,133.428 194.483,56.724 			"/>
		</g>
	</g>
	<g>
		<path d="M364.955,398.092h-67.679v-41.117h67.679c55.881,0,103.494-46.413,103.494-101.931c0-55.529-47.82-101.951-99.214-101.951
			v-41.118c71.952,0,140.331,64.874,140.331,143.069C509.566,333.229,443.523,398.092,364.955,398.092z"/>
		<g>
			<polygon points="317.836,301.404 184.996,378.099 317.836,454.805 			"/>
		</g>
	</g>
</g>
</svg>
